<?xml version="1.0" encoding="UTF-8" standalone="no"?>
<svg width="91px" height="92px" viewBox="0 0 91 92" version="1.1" xmlns="http://www.w3.org/2000/svg" xmlns:xlink="http://www.w3.org/1999/xlink" xmlns:sketch="http://www.bohemiancoding.com/sketch/ns">
    <!-- Generator: Sketch 3.5.2 (25235) - http://www.bohemiancoding.com/sketch -->
    <title>1</title>
    <desc>Created with Sketch.</desc>
    <defs></defs>
    <g id="Page-1" stroke="none" stroke-width="1" fill="none" fill-rule="evenodd" sketch:type="MSPage">
        <g id="product" sketch:type="MSArtboardGroup" transform="translate(-230.000000, -1706.000000)" fill="#FFFFFF">
            <g id="advantages" sketch:type="MSLayerGroup" transform="translate(0.000000, 1610.000000)">
                <g id="1" transform="translate(230.000000, 96.000000)" sketch:type="MSShapeGroup">
                    <path d="M35.5710766,67.5400275 C35.3671183,68.1616606 35.567065,68.8444862 36.0740046,69.2582752 C36.3632622,69.4946055 36.7186056,69.6153028 37.0760603,69.6153028 C37.3448376,69.6153028 37.6148817,69.5469358 37.8589559,69.4083028 L43.4371926,66.2362018 C43.9320974,65.9549266 44.2376125,65.4297248 44.2376125,64.860633 L44.2376125,56.7036514 C44.2376125,56.1246422 43.9211183,55.591633 43.4127007,55.314578 C42.9042831,55.0373119 42.2843852,55.0594679 41.7972923,55.3730275 L39.4359374,56.8916606 C39.1302111,57.0883211 38.9013387,57.384156 38.7881694,57.729578 L35.5710766,67.5400275 L35.5710766,67.5400275 Z M39.8582111,64.629789 L41.0705592,60.9324862 L41.0705592,63.940422 L39.8582111,64.629789 L39.8582111,64.629789 Z" id="Shape"></path>
                    <path d="M49.735406,43.883578 L49.735406,62.3901376 C49.735406,62.9547982 50.0364872,63.4766239 50.5252691,63.7595872 C50.7706102,63.9015963 51.044877,63.9727064 51.3189327,63.9727064 C51.590877,63.9727064 51.8630325,63.9026514 52.1071067,63.7627523 L85.2921253,44.7295138 C85.7840742,44.4473945 86.087478,43.9238807 86.087478,43.3568991 L86.087478,24.8503394 C86.087478,24.2856789 85.7863968,23.7638532 85.2976148,23.4808899 C84.8088329,23.1981376 84.205826,23.1966606 83.7157773,23.4777248 L50.5307587,42.5109633 C50.0388097,42.7930826 49.735406,43.3165963 49.735406,43.883578 L49.735406,43.883578 Z M52.9024594,44.7999908 L82.9204246,27.5831193 L82.9204246,42.4402752 L52.9024594,59.6571468 L52.9024594,44.7999908 L52.9024594,44.7999908 Z" id="Shape"></path>
                    <path d="M0.164897912,68.4688899 L0.164897912,75.4554037 C0.164897912,76.0209083 0.466823666,76.543367 0.956661253,76.8259083 L26.7111392,91.6853853 C26.9571137,91.8273945 27.2303248,91.8974495 27.5026914,91.8974495 C27.7737912,91.8974495 28.0423573,91.8246514 28.2836868,91.6872844 L28.2851647,91.6898165 L37.4689861,86.4766239 C37.4689861,86.4766239 41.1560696,88.6922202 41.3560162,88.8074312 C42.0411555,89.2028624 42.7982923,89.3906606 43.5847773,89.3906606 C46.0284756,89.3906606 48.7576311,87.5776697 50.5134455,84.5382936 C51.5549838,82.7358532 52.0910603,80.7595413 52.0232854,78.9735596 C52.0127285,78.6943945 51.9854919,78.4236697 51.9453759,78.1603303 L70.2224408,67.6155688 L74.2167285,69.712789 L74.215884,69.7113119 C74.8735754,70.0780459 75.6142436,70.2622569 76.395239,70.2622569 C77.3166404,70.2622569 78.2929374,70.0079908 79.25171,69.5022018 C80.8331253,68.6678716 82.2777239,67.2157064 83.319051,65.4132661 C84.3605893,63.6108257 84.8966659,61.6345138 84.8286798,59.8485321 C84.8219234,59.6714954 84.8069327,59.4984679 84.7883527,59.3275505 L86.5310766,58.3223028 C87.0211253,58.0395505 87.323051,57.5170917 87.323051,56.9515872 L87.323051,49.1541651 L90.1493295,47.5310826 C90.640645,47.2487523 90.9438376,46.7254495 90.9438376,46.1588899 L90.9438376,16.444578 C90.9438376,15.8790734 90.6423341,15.3566147 90.1520742,15.0740734 L64.3946404,0.21206422 C63.9058585,-0.0700550459 63.3034849,-0.0706880734 62.8138585,0.210587156 L19.9188654,24.8497064 C19.4279722,25.1316147 19.1249907,25.6542844 19.1243573,26.220211 L19.1243573,26.2216881 L19.1243573,34.0129908 L10.4088376,39.0974679 C10.0328028,39.3169174 9.77057077,39.6783761 9.67028074,40.0908991 L9.66838051,40.0904771 L5.89663109,55.6087248 C2.24712993,58.8886514 0.164897912,63.5454128 0.164897912,68.4688899 L0.164897912,68.4688899 Z M3.40627146,67.044156 L4.87958469,67.8943119 L4.87958469,69.5901927 L3.33195128,68.7187248 L3.33195128,68.4688899 C3.33195128,67.9901101 3.35876566,67.5151284 3.40627146,67.044156 L3.40627146,67.044156 Z M9.135471,55.6927064 L10.6533341,49.4481009 L33.2285128,62.4739083 L31.4517958,68.5691193 L9.135471,55.6927064 L9.135471,55.6927064 Z M12.2469954,42.8914128 L35.0943295,56.073578 L34.1406241,59.3456972 L11.4322181,46.2430826 L12.2469954,42.8914128 L12.2469954,42.8914128 Z M14.3613202,40.456789 L20.7076729,36.754633 L43.3035429,49.7937339 L36.9578237,53.4939908 L14.3613202,40.456789 L14.3613202,40.456789 Z M22.2916218,28.9626972 L44.8792575,41.9950459 L44.8792575,47.0480826 L22.2916218,34.0136239 L22.2916218,28.9626972 L22.2916218,28.9626972 Z M86.1875568,16.4414128 L46.4646845,39.2550917 L23.8804269,26.2250642 L63.6009768,3.40885321 L86.1875568,16.4414128 L86.1875568,16.4414128 Z M48.0463109,68.0610092 L48.0463109,41.997367 L87.7765731,19.1794679 L87.7765731,45.2431101 L48.0463109,68.0610092 L48.0463109,68.0610092 Z M74.9371276,65.067 C74.8923666,63.8866147 75.2888817,62.4787615 76.0249049,61.2046881 C76.7609281,59.9306147 77.7826195,58.8835872 78.8277471,58.3322202 C79.3260302,58.0693028 79.7974988,57.9353119 80.1980255,57.9353119 C80.448645,57.9353119 80.6713944,57.9878532 80.8557169,58.0942018 C81.3345754,58.3704128 81.6289002,59.0536606 81.6635267,59.9688073 C81.7082877,61.1491927 81.3119838,62.5568349 80.5759606,63.8309083 C79.8399374,65.1049817 78.8182459,66.1520092 77.7731183,66.7033761 C76.9627749,67.1308807 76.2237958,67.2173945 75.7449374,66.9413945 C75.26629,66.6651835 74.9719652,65.9821468 74.9371276,65.067 L74.9371276,65.067 Z M49.6342715,74.4780092 C49.1374664,74.1914587 48.6024455,74.0161101 48.0463109,73.9401468 L48.0463109,71.7118899 L84.1559977,50.9732752 L84.1559977,56.0379174 L83.6127425,56.3512661 C83.2814687,55.9488716 82.8883318,55.6118899 82.4396659,55.3529817 C80.9982343,54.5211835 79.1429745,54.5870183 77.3495777,55.5331835 C75.7683735,56.3675138 74.3237749,57.8196789 73.2824478,59.6221193 C72.6631833,60.6938349 72.2242297,61.8269541 71.9831114,62.9450917 L50.6238701,75.2678165 C50.3335568,74.956789 50.0029165,74.6904954 49.6342715,74.4780092 L49.6342715,74.4780092 Z M43.2195104,80.3297156 C44.4270023,78.2396697 46.2011856,77.0582294 47.3877749,77.0582294 C47.6386056,77.0582294 47.8632552,77.1109817 48.0507448,77.2192294 C48.5296032,77.4954404 48.8237169,78.1784771 48.8585545,79.0936239 C48.9033155,80.2740092 48.5068005,81.6818624 47.7707773,82.9559358 C46.3080209,85.4880459 44.0138074,86.6855229 42.9395429,86.066633 C41.8654896,85.4466881 41.7567541,82.8616147 43.2195104,80.3297156 L43.2195104,80.3297156 Z M29.0868515,82.3746055 C29.0868515,78.7005138 30.4909118,75.2194954 33.0406009,72.5728073 L33.548174,72.0457064 C33.7259513,71.8612844 33.8562227,71.6365596 33.9277981,71.3907339 L38.3055104,56.372578 L44.8792575,52.5391743 L44.8790464,74.4932018 C43.2285893,75.2600092 41.6391508,76.7345413 40.4766311,78.7469358 C39.8862923,79.7688532 39.4720418,80.8167248 39.2273341,81.8380092 L29.0868515,87.5943394 L29.0868515,82.3746055 L29.0868515,82.3746055 Z M24.3512622,80.822633 L24.3527401,79.0718899 L26.0762506,80.0659541 C26.0010858,80.6295596 25.9540023,81.1990734 25.9343666,81.7732294 L24.3512622,80.822633 L24.3512622,80.822633 Z M3.33195128,74.5415229 L3.33195128,72.3514587 L5.68570534,73.6768073 C5.92724594,73.8126972 6.19517865,73.8806422 6.46311137,73.8806422 C6.73948956,73.8806422 7.01544548,73.8084771 7.26205336,73.6643578 C7.74787935,73.3805505 8.04663805,72.8604128 8.04663805,72.2980734 L8.04663805,66.9806422 C8.04663805,66.4151376 7.7447123,65.8928899 7.25487471,65.6101376 L4.12498144,63.8041101 C4.82933411,61.7889725 5.98868677,59.9479174 7.532942,58.4229541 L29.9092297,71.3339725 C28.5389513,72.9815321 27.4986798,74.8462202 26.8255754,76.843633 L23.562877,74.9618532 C23.0732506,74.6795229 22.4700325,74.6793119 21.9799838,74.9616422 C21.4903573,75.2439725 21.1882204,75.7662202 21.1877981,76.3313028 L21.1833643,81.7162569 C21.182942,82.2722661 21.474522,82.7875505 21.9512691,83.0738899 L25.9197981,85.4574495 L25.9197981,87.5740826 L3.33195128,74.5415229 L3.33195128,74.5415229 Z" id="Shape"></path>
                </g>
            </g>
        </g>
    </g>
</svg>