<?xml version="1.0" encoding="UTF-8" standalone="no"?>
<svg width="78px" height="92px" viewBox="0 0 78 92" version="1.1" xmlns="http://www.w3.org/2000/svg" xmlns:xlink="http://www.w3.org/1999/xlink" xmlns:sketch="http://www.bohemiancoding.com/sketch/ns">
    <!-- Generator: Sketch 3.5.2 (25235) - http://www.bohemiancoding.com/sketch -->
    <title>3</title>
    <desc>Created with Sketch.</desc>
    <defs></defs>
    <g id="Page-1" stroke="none" stroke-width="1" fill="none" fill-rule="evenodd" sketch:type="MSPage">
        <g id="product" sketch:type="MSArtboardGroup" transform="translate(-1049.000000, -1706.000000)" fill="#FFFFFF">
            <g id="advantages" sketch:type="MSLayerGroup" transform="translate(0.000000, 1610.000000)">
                <g id="3" transform="translate(1049.000000, 96.000000)" sketch:type="MSShapeGroup">
                    <path d="M77.6249776,58.7817759 L74.6290773,54.5419958 L76.3017007,49.6342918 C76.4825985,49.1032981 76.3429377,48.5155095 75.9426284,48.1226131 L72.2503691,44.4996025 L73.114399,39.4026469 C73.2069875,38.8562875 72.9819352,38.304482 72.533581,37.9786892 L68.356399,34.9434672 L68.505591,29.7819366 C68.5215411,29.2307146 68.2251022,28.7174207 67.739596,28.455814 L63.1955611,26.005852 L62.655202,20.8701903 C62.5972369,20.3189683 62.2319401,19.8482706 61.7121995,19.6553235 L56.8656958,17.8551966 L55.5745137,12.8465455 C55.4344638,12.3034926 54.9954464,11.8886173 54.4451671,11.7796956 L49.3578554,10.7725581 L47.1837756,6.05877378 C46.942384,5.53575476 46.4232269,5.19790275 45.8398803,5.21112896 L40.6185486,5.27939958 L37.3046185,1.23120507 C36.9171471,0.757978858 36.2754464,0.576312896 35.6975461,0.777234672 L30.696404,2.51298097 L25.9399601,0.15210148 C25.5007481,-0.0657420719 24.981591,-0.048820296 24.5579401,0.197809725 L16.1191571,5.10590275 L16.1197406,5.10668076 C15.975995,5.19012262 15.8443092,5.29846089 15.7330474,5.43169556 L12.3004638,9.54252008 L7.02389027,10.4599915 C6.35904239,10.5755264 5.86030923,11.1321945 5.81771072,11.8055645 L5.4841197,17.1046089 L1.48024938,20.5681268 C1.01750125,20.9684144 0.853720698,21.6147484 1.07001995,22.1869767 L2.91906733,27.0806765 L0.249366584,31.5670867 C-0.0453216958,32.0620973 -0.0208129676,32.6843129 0.311610973,33.1548161 L3.30692768,37.3942072 L1.63508229,42.3030782 C1.45418454,42.8340719 1.5940399,43.421666 1.99434913,43.8145624 L5.68641397,47.4369894 L4.82199501,52.534334 C4.72940648,53.0808879 4.95445885,53.6324989 5.40281297,53.9582918 L9.58077307,56.9940973 L9.43041397,62.1550444 C9.41426933,62.7064609 9.71070823,63.2197548 10.196409,63.481556 L14.7410274,65.9317125 L15.281192,71.0671797 C15.3391571,71.6184017 15.7044539,72.0890994 16.2241945,72.282241 L21.0708928,74.0823679 L22.3622693,79.0908245 C22.5023192,79.6340719 22.9415312,80.0487526 23.4918105,80.1576744 L28.5797057,81.1646173 L30.753591,85.8782072 C30.9922594,86.3955856 31.5096658,86.7260465 32.0782294,86.7260465 L32.0974863,86.7260465 L37.3180399,86.6571924 L40.6321646,90.7055814 C41.0198304,91.1790021 41.6615312,91.3604736 42.2394314,91.1597463 L47.2409626,89.424 L51.9970175,91.7844905 C52.2037855,91.8871882 52.4255312,91.9367865 52.6451372,91.9367865 C53.0670374,91.9367865 53.4809626,91.753759 53.7655362,91.4129894 L57.1979252,87.3023594 L62.4744988,86.3850825 C62.6489776,86.35474 62.810813,86.2926934 62.9572818,86.2075011 L62.9580599,86.2088626 L71.3964539,81.3017421 C71.8173815,81.0570571 72.0883392,80.6182579 72.1190723,80.132389 L72.4528579,74.8325666 L76.4563392,71.3692431 C76.9188928,70.9691501 77.0828678,70.3228161 76.8665686,69.7505877 L75.0181047,64.8564989 L77.688,60.3695053 C77.9817157,59.8743002 77.9574015,59.2522791 77.6249776,58.7817759 L77.6249776,58.7817759 Z M72.0395162,65.229945 L73.6998853,69.6261057 L67.8187631,73.046444 L66.5785436,69.764203 L69.0548978,65.6026131 L72.3017207,63.7141818 L72.150389,63.9687865 C71.9233915,64.3502072 71.8825436,64.8144863 72.0395162,65.229945 L72.0395162,65.229945 Z M67.6868828,55.0584017 L72.2811022,52.3863171 L71.6271471,54.3052854 C71.476399,54.7477801 71.546813,55.2357886 71.8166035,55.6177928 L74.3223292,59.1639746 L68.4155312,62.5994841 L66.1906833,59.4508668 L67.6868828,55.0584017 L67.6868828,55.0584017 Z M72.533192,48.8646427 L66.7096459,52.2515264 L63.8113915,49.4080846 L64.5616309,44.9841099 L69.7168279,41.985649 L69.2459102,44.7631543 C69.1661596,45.233852 69.3217706,45.7138858 69.6625586,46.0480423 L72.533192,48.8646427 L72.533192,48.8646427 Z M69.0074364,39.0229767 L63.3258853,42.3275856 L59.9172269,39.8507822 L60.0438554,35.5005243 L65.5129975,32.3196195 L65.4172968,35.6287019 C65.4034863,36.1102918 65.6281496,36.5677632 66.0179551,36.8509598 L69.0074364,39.0229767 L69.0074364,39.0229767 Z M64.0627032,29.7879662 L58.5822793,32.9754841 L54.7569726,30.913167 L54.3156209,26.7165666 L59.989197,23.4168203 L60.3743342,27.0767865 C60.4247132,27.5560423 60.7087032,27.9794757 61.1327431,28.2082114 L64.0627032,29.7879662 L64.0627032,29.7879662 Z M57.8005287,21.31463 L52.6282145,24.3228161 L48.4273017,22.7627061 L47.4119401,18.8240169 L53.2300399,15.4400507 L54.2306185,19.321556 C54.3498554,19.7838901 54.6877257,20.1586977 55.1353017,20.3249979 L57.8005287,21.31463 L57.8005287,21.31463 Z M47.0198005,12.6697421 C47.2154813,13.094148 47.6027581,13.399129 48.0612269,13.4897674 L50.0894214,13.891222 L45.4660249,16.5802283 L40.9184888,15.6802622 L39.3001347,12.1714249 L45.2055711,8.73669345 L47.0198005,12.6697421 L47.0198005,12.6697421 Z M38.8058753,7.67081607 C39.0871421,8.01450317 39.5121546,8.21464693 39.9537007,8.20550529 L40.3244439,8.20064271 L37.0177107,10.1238901 L32.1801546,10.1874926 L29.9502494,7.46367019 L35.8344838,4.04138689 L38.8058753,7.67081607 L38.8058753,7.67081607 Z M25.3461097,3.11457928 L28.7339551,4.7960592 L27.1257157,5.73142495 L22.2572319,7.421074 L19.9289027,6.26553066 L25.3461097,3.11457928 L25.3461097,3.11457928 Z M60.840389,83.7075518 L56.1706983,84.519408 C55.8302993,84.578537 55.5221895,84.7565074 55.3008329,85.0216152 L52.2631122,88.6596025 L47.9894514,86.5385455 C47.78599,86.4374038 47.5638554,86.386444 47.3409426,86.386444 C47.1796908,86.386444 47.0178554,86.4132854 46.8626334,86.4671628 L42.2446833,88.0696744 L39.1305187,84.2653869 C38.8490574,83.9216998 38.4213217,83.7299197 37.9824988,83.7306977 L33.0062544,83.7962452 L30.9173716,79.2670444 C30.7216908,78.8426385 30.334414,78.5376575 29.8759451,78.447019 L24.9584439,77.4739197 L23.7061646,72.6160085 C23.5869277,72.1536744 23.2490574,71.7788668 22.8014813,71.6125666 L18.0886085,69.8620381 L17.5626434,64.860389 C17.5122643,64.3811332 17.2282743,63.9576998 16.8040399,63.7289641 L12.3730175,61.3404651 L12.5194863,56.3090571 C12.5334913,55.8272727 12.3088279,55.3698013 11.9190224,55.0864101 L7.85018454,52.1297674 L8.6906783,47.1730486 C8.77042893,46.702351 8.61481796,46.2223171 8.27402993,45.8879662 L4.69303242,42.3746554 L6.30905237,37.630334 C6.45960599,37.1878393 6.38938653,36.7000254 6.11959601,36.3182156 L3.24137656,32.2447357 L5.7861995,27.968389 C6.01319701,27.5867738 6.0542394,27.1223002 5.89726683,26.7068414 L4.1594813,22.108203 L7.85640898,18.9103763 C8.15265337,18.6542156 8.33335661,18.2895222 8.35805985,17.8987653 L8.65780549,13.1373277 L13.3274963,12.3254715 C13.6678953,12.2663425 13.976005,12.0883721 14.1973616,11.8232643 L17.2350823,8.18527696 L21.5087431,10.306334 C21.8596459,10.4806089 22.2657905,10.5060888 22.6355611,10.3779112 L27.2535112,8.77539958 L30.3676758,12.5794926 C30.6491372,12.9231797 31.0735661,13.125463 31.5156958,13.1141818 L36.4919401,13.0488288 L38.5808229,17.5780296 C38.7765037,18.0024355 39.1637805,18.3074165 39.6222494,18.398055 L44.5397506,19.3711543 L45.7920299,24.2290655 C45.9112668,24.6913996 46.2491372,25.0662072 46.6967132,25.2325074 L51.409586,26.9830359 L51.9355511,31.984685 C51.9859302,32.4639408 52.2699202,32.8873742 52.6941546,33.1161099 L57.1245935,35.5046089 L56.9781247,40.5360169 C56.9641197,41.0178013 57.188783,41.4752727 57.578783,41.7586638 L61.6476209,44.7151121 L60.8071272,49.6718309 C60.7273766,50.1425285 60.8829875,50.6225624 61.2237756,50.9569133 L64.8047731,54.4702241 L63.1887531,59.2145455 C63.0381995,59.6570402 63.108419,60.1448541 63.3782095,60.5266638 L66.2564289,64.6001438 L63.711606,68.876685 C63.4846085,69.2583002 63.4435661,69.7227738 63.6005387,70.1382326 L65.3383242,74.736871 L61.641591,77.9346977 C61.3453466,78.1908584 61.1646434,78.5555518 61.1399401,78.9463087 L60.840389,83.7075518 L60.840389,83.7075518 Z M63.8516559,82.3137421 L64.0136858,79.7404651 L67.9146584,76.3660296 L69.4898304,75.4499197 L69.2554414,79.1715433 L63.8516559,82.3137421 L63.8516559,82.3137421 Z" id="Shape"></path>
                    <path d="M43.6150324,36.2888457 C42.9645786,35.8136744 42.0517257,35.9556617 41.5765287,36.6060803 L25.5657157,58.5176406 C25.0903242,59.1682537 25.2325137,60.0808626 25.8829676,60.5560338 C26.1424489,60.7456744 26.4437506,60.8370909 26.7423292,60.8370909 C27.1922394,60.8370909 27.6359252,60.6297505 27.9214713,60.2387992 L43.9322843,38.3272389 C44.4074813,37.6766258 44.2654863,36.7642114 43.6150324,36.2888457 L43.6150324,36.2888457 Z" id="Shape"></path>
                    <path d="M30.0994414,44.007704 C30.9276808,44.007704 31.7074863,43.8067822 32.4073466,43.4026047 C34.014419,42.47463 34.9039302,40.6478562 34.9120998,38.2583848 C34.9192968,36.1561945 34.2311072,33.7999831 32.9743541,31.6234926 C31.717601,29.4470021 30.0210524,27.6727442 28.1967082,26.6278732 C26.123192,25.4400423 24.0961646,25.2968879 22.4890923,26.2248626 C19.3902943,28.0139027 19.1413167,33.1878816 21.9220848,38.0041691 C23.1786434,40.1806596 24.8753865,41.9549175 26.6997307,42.9997886 C27.8703142,43.670241 29.0257257,44.007704 30.0994414,44.007704 L30.0994414,44.007704 Z M24.4490125,36.5453953 C22.796813,33.6838647 22.2315561,29.7426469 23.9481397,28.7516533 C24.1887531,28.612778 24.477217,28.5441184 24.8008878,28.5441184 C25.3649776,28.5441184 26.0360499,28.7526258 26.7466085,29.1595264 C28.1103441,29.9408457 29.4592968,31.3706385 30.4476209,33.0822664 C31.4359451,34.7938943 31.9996459,36.677074 31.994394,38.2486596 C31.9901147,39.5370486 31.6088678,40.4947822 30.9484938,40.8760085 C30.2879252,41.2570402 29.2680898,41.1086342 28.1500249,40.4681353 C26.7862893,39.6870106 25.4373367,38.2572178 24.4490125,36.5453953 L24.4490125,36.5453953 Z" id="Shape"></path>
                    <path d="M42.7980748,53.8448964 C40.7245586,52.6574545 38.6975312,52.5141057 37.0904589,53.4418858 C35.483192,54.369666 34.5936808,56.1966342 34.5857057,58.5861057 C34.5787032,60.688296 35.2668928,63.0447019 36.5234514,65.2211924 C37.78001,67.3976829 39.4767531,69.1719408 41.3010973,70.2168118 C42.4716808,70.8872643 43.6270923,71.2249218 44.700808,71.2249218 C45.5290474,71.2249218 46.3088529,71.024 47.0087132,70.6198224 C48.6157855,69.6918478 49.5052968,67.865074 49.5134663,65.4756025 C49.5206633,63.3734123 48.8324738,61.0172008 47.5757207,58.8407104 C46.3189676,56.6642199 44.622419,54.8899619 42.7980748,53.8448964 L42.7980748,53.8448964 Z M45.5498603,68.0930317 C44.8894863,68.4740634 43.8694564,68.325463 42.7513915,67.6851586 C41.3876559,66.9040338 40.0387032,65.474241 39.0503791,63.7624186 C38.0620549,62.0505962 37.4981596,60.167611 37.5034115,58.5958309 C37.5076908,57.3074419 37.8889377,56.3497082 38.5493117,55.968482 C38.7899252,55.8296068 39.078389,55.7609471 39.4020599,55.7609471 C39.9661496,55.7609471 40.6372219,55.9694545 41.3477805,56.3763552 C42.7115162,57.1576744 44.0604688,58.5874672 45.048793,60.2990951 C46.0371172,62.010723 46.600818,63.8939027 46.5955661,65.4654884 C46.5912868,66.7542664 46.2102344,67.7118055 45.5498603,68.0930317 L45.5498603,68.0930317 Z" id="Shape"></path>
                </g>
            </g>
        </g>
    </g>
</svg>