<?xml version="1.0" encoding="UTF-8" standalone="no"?>
<svg width="80px" height="92px" viewBox="0 0 80 92" version="1.1" xmlns="http://www.w3.org/2000/svg" xmlns:xlink="http://www.w3.org/1999/xlink" xmlns:sketch="http://www.bohemiancoding.com/sketch/ns">
    <!-- Generator: Sketch 3.5.2 (25235) - http://www.bohemiancoding.com/sketch -->
    <title>2</title>
    <desc>Created with Sketch.</desc>
    <defs></defs>
    <g id="Page-1" stroke="none" stroke-width="1" fill="none" fill-rule="evenodd" sketch:type="MSPage">
        <g id="product" sketch:type="MSArtboardGroup" transform="translate(-643.000000, -1706.000000)" fill="#FFFFFF">
            <g id="advantages" sketch:type="MSLayerGroup" transform="translate(0.000000, 1610.000000)">
                <g id="2" transform="translate(643.000000, 96.000000)" sketch:type="MSShapeGroup">
                    <path d="M51.039604,39.5119136 C46.359802,31.3781598 40.1009901,24.7823758 33.4160396,20.9396371 C26.4774257,16.9512484 19.8677228,16.3698402 14.8043564,19.3033089 C9.74118812,22.2365788 6.93782178,28.2712225 6.91089109,36.2952916 C6.8849505,44.0260734 9.44792079,52.7628942 14.1277228,60.8966479 C18.8075248,69.0304017 25.0663366,75.625987 31.7512871,79.4687257 C35.7758416,81.7822376 39.6893069,82.9492268 43.2548515,82.9492268 C45.8368317,82.9492268 48.2364356,82.3372181 50.3629703,81.1052527 C55.4261386,78.1719827 58.229703,72.1373391 58.2564356,64.11327 C58.2823762,56.3824881 55.7194059,47.6456674 51.039604,39.5119136 L51.039604,39.5119136 Z M48.8776238,78.5240864 C44.7681188,80.9045616 39.210297,80.3217624 33.2277228,76.8825918 C26.9910891,73.2975724 21.1213861,67.0910497 16.7,59.4063672 C12.2784158,51.7216847 9.85683168,43.5175896 9.8809901,36.3054255 C9.90435644,29.3865486 12.18,24.265149 16.2893069,21.8844752 C20.3988119,19.5036026 25.9566337,20.0867991 31.9394059,23.5257711 C38.1760396,27.1107905 44.0457426,33.3173132 48.4671287,41.0019957 C52.8885149,48.6866782 55.310297,56.8907732 55.2859406,64.1029374 C55.2627723,71.0218143 52.9869307,76.1434125 48.8776238,78.5240864 L48.8776238,78.5240864 Z" id="Shape"></path>
                    <path d="M70.5986139,28.0929849 C64.6283168,17.7168553 56.649703,9.30610799 48.1324752,4.41023758 C39.3613861,-0.631680346 31.0267327,-1.37761555 24.6586139,2.31172354 C24.6586139,2.31172354 9.86574257,10.9692613 9.8150495,10.9992657 C3.55108911,14.72 0.0855445545,22.2938056 0.0516831683,32.352406 C0.0184158416,42.2017711 3.28811881,53.3407257 9.25841584,63.7174514 C15.2285149,74.0939784 23.2071287,82.5049244 31.7241584,87.4007948 C36.8243564,90.3324752 41.7762376,91.8116285 46.279604,91.8116285 C49.3645545,91.8116285 52.2390099,91.1167603 54.8053465,89.7196717 C54.9277228,89.6531058 70.1653465,81.1948683 70.1653465,81.1948683 C70.1732673,81.1904968 70.1811881,81.1859266 70.1889109,81.1813564 C76.5388119,77.5033434 80.0083168,69.833365 79.9580198,59.5846048 C79.909703,49.6821857 76.5857426,38.498324 70.5986139,28.0929849 L70.5986139,28.0929849 Z M33.2009901,84.8146609 C25.1322772,80.1765097 17.5429703,72.1548251 11.8308911,62.2273693 C6.1190099,52.2999136 2.99049505,41.6936847 3.0219802,32.3627387 C3.05247525,23.3252786 6.04851485,16.6219957 11.4584158,13.4878359 C16.8681188,10.3538747 24.1516832,11.101797 31.9663366,15.5940994 C40.0348515,20.2322505 47.6241584,28.2539352 53.3362376,38.1813909 C59.0481188,48.1088467 62.1766337,58.7150756 62.1451485,68.0460216 C62.1146535,77.0834816 59.1186139,83.7867646 53.7087129,86.9209244 C48.2992079,90.0550842 41.0158416,89.307162 33.2009901,84.8146609 L33.2009901,84.8146609 Z M68.7156436,78.5932354 L61.9552475,82.3443715 C64.0049505,78.514946 65.0962376,73.6739179 65.1150495,68.0557581 C65.1483168,58.2063931 61.8786139,47.0674384 55.9083168,36.6907127 C49.9380198,26.313987 41.959604,17.9032397 33.4425743,13.0073693 C28.6764356,10.2674384 24.039604,8.79941253 19.7772277,8.6187905 L26.1493069,4.88951188 C31.5584158,1.75574946 38.8409901,2.50387041 46.6560396,6.99637149 C54.7249505,11.6345227 62.3144554,19.6560086 68.0263366,29.583067 C73.7592079,39.5468855 76.9417822,50.2067646 76.9879208,59.5989114 C77.0326733,68.7251922 74.0948515,75.470203 68.7156436,78.5932354 L68.7156436,78.5932354 Z" id="Shape"></path>
                    <path d="M32.6479208,32.4809676 C31.8275248,32.4809676 31.1627723,33.148216 31.1627723,33.9712484 L31.1627723,47.8372181 L23.6306931,43.4710929 C22.9205941,43.059378 22.0122772,43.3031879 21.6017822,44.0161382 C21.1914851,44.7286911 21.4346535,45.6403456 22.1447525,46.0520605 L31.9049505,51.7097624 C32.1348515,51.8428942 32.3912871,51.9096587 32.6479208,51.9096587 C32.9043564,51.9096587 33.1605941,51.8430929 33.390297,51.7101598 C33.849901,51.444095 34.1330693,50.951905 34.1330693,50.419378 L34.1330693,33.9714471 C34.1330693,33.148216 33.4681188,32.4809676 32.6479208,32.4809676 L32.6479208,32.4809676 Z" id="Shape"></path>
                </g>
            </g>
        </g>
    </g>
</svg>