<?xml version="1.0" encoding="UTF-8" standalone="no"?>
<svg width="36px" height="36px" viewBox="0 0 36 36" version="1.1" xmlns="http://www.w3.org/2000/svg" xmlns:xlink="http://www.w3.org/1999/xlink" xmlns:sketch="http://www.bohemiancoding.com/sketch/ns">
    <!-- Generator: Sketch 3.5.2 (25235) - http://www.bohemiancoding.com/sketch -->
    <title>Shape</title>
    <desc>Created with Sketch.</desc>
    <defs></defs>
    <g id="Page-1" stroke="none" stroke-width="1" fill="none" fill-rule="evenodd" sketch:type="MSPage">
        <g id="product" sketch:type="MSArtboardGroup" transform="translate(-1247.000000, -27.000000)" fill="#C8C8C8">
            <g id="header" sketch:type="MSLayerGroup">
                <path d="M1283,45.0021176 C1283,35.0826471 1274.91735,27 1264.99788,27 C1255.07841,27 1247,35.0826471 1247,45.0021176 C1247,50.4657059 1249.47882,55.3807647 1253.33518,58.6844118 C1253.38194,58.7311765 1253.42871,58.7779412 1253.518,58.8204706 C1256.63882,61.4395882 1260.63553,63 1265.04465,63 C1269.36024,63 1273.35694,61.4395882 1276.47776,58.914 C1276.66059,58.8672353 1276.80088,58.7311765 1276.89018,58.5908824 C1280.61476,55.2404706 1283,50.4189412 1283,45.0021176 L1283,45.0021176 Z M1248.65394,45.0021176 C1248.65394,36.0010588 1256.00106,28.6539412 1265.00212,28.6539412 C1274.00318,28.6539412 1281.35029,36.0010588 1281.35029,45.0021176 C1281.35029,49.4112353 1279.60706,53.4036471 1276.75835,56.3459412 C1276.29918,54.186 1274.92159,50.5124706 1270.69529,48.1272353 C1271.66047,46.9324706 1272.20894,45.3720588 1272.20894,43.7181176 C1272.20894,39.7681765 1268.99459,36.5538235 1265.04465,36.5538235 C1261.09471,36.5538235 1257.88035,39.7681765 1257.88035,43.7181176 C1257.88035,45.3720588 1258.47559,46.8857059 1259.394,48.1272353 C1255.12947,50.5124706 1253.75188,54.1860588 1253.33941,56.3459412 C1250.44394,53.4504706 1248.65394,49.4112353 1248.65394,45.0021176 L1248.65394,45.0021176 Z M1259.49176,43.7605882 C1259.49176,40.7290588 1261.97059,38.2502353 1265.00212,38.2502353 C1268.03365,38.2502353 1270.51247,40.7290588 1270.51247,43.7605882 C1270.51247,46.7921176 1268.03365,49.2709412 1265.00212,49.2709412 C1261.97059,49.2709412 1259.49176,46.7921176 1259.49176,43.7605882 L1259.49176,43.7605882 Z M1254.80629,57.7660588 C1254.89982,56.4352353 1255.63112,51.9325882 1260.593,49.407 C1261.83453,50.3721765 1263.34818,50.9206471 1265.00212,50.9206471 C1266.65606,50.9206471 1268.21647,50.3254118 1269.458,49.3602353 C1274.37306,51.8858235 1275.15118,56.2949412 1275.29147,57.7192941 C1272.48953,59.9685294 1268.90953,61.3460588 1265.05312,61.3460588 C1261.14576,61.3502941 1257.60824,60.0194706 1254.80629,57.7660588 L1254.80629,57.7660588 Z" id="Shape" sketch:type="MSShapeGroup"></path>
            </g>
        </g>
    </g>
</svg>