<?xml version="1.0" encoding="UTF-8" standalone="no"?>
<svg width="32px" height="32px" viewBox="0 0 32 32" version="1.1" xmlns="http://www.w3.org/2000/svg" xmlns:xlink="http://www.w3.org/1999/xlink" xmlns:sketch="http://www.bohemiancoding.com/sketch/ns">
    <!-- Generator: Sketch 3.5.2 (25235) - http://www.bohemiancoding.com/sketch -->
    <title>insta</title>
    <desc>Created with Sketch.</desc>
    <defs></defs>
    <g id="Page-1" stroke="none" stroke-width="1" fill="none" fill-rule="evenodd" sketch:type="MSPage">
        <g id="product" sketch:type="MSArtboardGroup" transform="translate(-1082.000000, -3298.000000)">
            <g id="footer" sketch:type="MSLayerGroup" transform="translate(0.000000, 3217.000000)">
                <g id="insta" transform="translate(1082.000000, 81.000000)" sketch:type="MSShapeGroup">
                    <rect id="frame" stroke="#C8C8C8" fill="#FAFAFA" x="0" y="0" width="32" height="32" rx="3"></rect>
                    <path d="M10.0409796,8 L21.8602449,8 C22.9826939,8 23.9010612,8.83102041 23.9010612,10.0408163 L23.9010612,21.8604082 C23.9010612,23.0702041 22.9826939,23.9012245 21.8602449,23.9012245 L10.0409796,23.9012245 C8.91820408,23.9012245 8,23.0702041 8,21.8604082 L8,10.0408163 C8,8.83102041 8.91820408,8 10.0409796,8 L10.0409796,8 L10.0409796,8 Z M19.5833469,9.76669388 C19.189551,9.76669388 18.8677551,10.0886531 18.8677551,10.4826122 L18.8677551,12.1960816 C18.8677551,12.5898776 19.189551,12.912 19.5833469,12.912 L21.3805714,12.912 C21.7743673,12.912 22.0964898,12.5898776 22.0964898,12.1960816 L22.0964898,10.4826122 C22.0964898,10.0886531 21.7743673,9.76669388 21.3805714,9.76669388 L19.5833469,9.76669388 L19.5833469,9.76669388 L19.5833469,9.76669388 Z M22.104,14.7245714 L20.7044898,14.7245714 C20.836898,15.156898 20.9085714,15.6148571 20.9085714,16.0886531 C20.9085714,18.733551 18.6953469,20.877551 15.9657143,20.877551 C13.2362449,20.877551 11.0233469,18.733551 11.0233469,16.0886531 C11.0233469,15.6145306 11.0948571,15.1567347 11.2274286,14.7245714 L9.76702041,14.7245714 L9.76702041,21.4414694 C9.76702041,21.7890612 10.0514286,22.0736327 10.3991837,22.0736327 L21.4721633,22.0736327 C21.8199184,22.0736327 22.1043265,21.7892245 22.1043265,21.4414694 L22.1043265,14.7245714 L22.104,14.7245714 L22.104,14.7245714 Z M15.965551,12.8217143 C14.2019592,12.8217143 12.7720816,14.2070204 12.7720816,15.9160816 C12.7720816,17.6251429 14.2019592,19.010449 15.965551,19.010449 C17.7293061,19.010449 19.1593469,17.6251429 19.1593469,15.9160816 C19.1593469,14.2070204 17.7294694,12.8217143 15.965551,12.8217143 L15.965551,12.8217143 Z" id="Shape" opacity="0.3" fill="#000000"></path>
                </g>
            </g>
        </g>
    </g>
</svg>