<?xml version="1.0" encoding="UTF-8" standalone="no"?>
<svg width="32px" height="32px" viewBox="0 0 32 32" version="1.1" xmlns="http://www.w3.org/2000/svg" xmlns:xlink="http://www.w3.org/1999/xlink" xmlns:sketch="http://www.bohemiancoding.com/sketch/ns">
    <!-- Generator: Sketch 3.5.2 (25235) - http://www.bohemiancoding.com/sketch -->
    <title>twi</title>
    <desc>Created with Sketch.</desc>
    <defs></defs>
    <g id="Page-1" stroke="none" stroke-width="1" fill="none" fill-rule="evenodd" sketch:type="MSPage">
        <g id="product" sketch:type="MSArtboardGroup" transform="translate(-1040.000000, -3298.000000)">
            <g id="footer" sketch:type="MSLayerGroup" transform="translate(0.000000, 3217.000000)">
                <g id="twi" transform="translate(1040.000000, 81.000000)" sketch:type="MSShapeGroup">
                    <rect id="frame" stroke="#C8C8C8" fill="#FAFAFA" x="0" y="0" width="32" height="32" rx="3"></rect>
                    <path d="M25,11.5468956 C24.4111111,11.8074438 23.7792418,11.9841446 23.1153464,12.0630321 C23.7932288,11.6577088 24.3121307,11.0148092 24.5580654,10.2510984 C23.9221961,10.6264538 23.2203137,10.89901 22.4724444,11.046761 C21.8735686,10.4088474 21.0217255,10.011512 20.0768889,10.011512 C18.2642353,10.011512 16.7945098,11.4790241 16.7945098,13.2879558 C16.7945098,13.54451 16.8235033,13.7950863 16.8795033,14.0346988 C14.1520261,13.8979116 11.7334902,12.5931345 10.1147974,10.6104779 C9.83184314,11.0936707 9.67087582,11.6566908 9.67087582,12.2576928 C9.67087582,13.3947751 10.2507712,14.3980723 11.1306144,14.9850562 C10.5927059,14.9670964 10.0867974,14.8193454 9.64389542,14.573755 L9.64389542,14.6146867 C9.64389542,16.201992 10.7756863,17.526739 12.2763922,17.828245 C12.0014379,17.9021205 11.7115033,17.9430522 11.4115556,17.9430522 C11.1996078,17.9430522 10.9946405,17.9220904 10.7936732,17.8821506 C11.2115817,19.1849438 12.4233725,20.1323253 13.8591111,20.1582992 C12.7363137,21.0368173 11.3205752,21.5589317 9.78287582,21.5589317 C9.51793464,21.5589317 9.25696732,21.5429558 9.00002614,21.514006 C10.4527582,22.4454378 12.1774379,22.9885141 14.031085,22.9885141 C20.0689412,22.9885141 23.3693333,17.9949739 23.3693333,13.6643293 L23.3583268,13.2400542 C24.0031895,12.7807992 24.5610719,12.2037871 25,11.5468956 L25,11.5468956 Z" id="Shape" opacity="0.3" fill="#010002"></path>
                </g>
            </g>
        </g>
    </g>
</svg>